<!-- shy-cute-cat-mascot simple -->
<svg width="256" height="256" viewBox="0 0 256 256" xmlns="http://www.w3.org/2000/svg">
  <!-- background transparent -->
  <!-- head -->
  <g id="cat">
    <g id="head">
      <rect x="84" y="52" width="88" height="80" rx="26" ry="26"
            fill="#f3d6b8" stroke="#6b4b3b" stroke-width="3"
            stroke-linecap="round" stroke-linejoin="round" />
    </g>
    <!-- ears -->
    <g id="ears">
      <rect x="90" y="34" width="30" height="32" rx="12" ry="12"
            fill="#f3d6b8" stroke="#6b4b3b" stroke-width="3"
            stroke-linecap="round" stroke-linejoin="round" />
      <rect x="136" y="34" width="30" height="32" rx="12" ry="12"
            fill="#f3d6b8" stroke="#6b4b3b" stroke-width="3"
            stroke-linecap="round" stroke-linejoin="round" />
      <rect x="95" y="38" width="20" height="22" rx="10" ry="10"
            fill="#f6c7c8" />
      <rect x="141" y="38" width="20" height="22" rx="10" ry="10"
            fill="#f6c7c8" />
    </g>
    <!-- face -->
    <g id="face">
      <circle cx="110" cy="90" r="7" fill="#2b2434" />
      <circle cx="146" cy="90" r="7" fill="#2b2434" />
      <circle cx="108" cy="88" r="2" fill="#ffffff" />
      <circle cx="144" cy="88" r="2" fill="#ffffff" />
      <path d="M124 101 Q128 104 132 101 Q130 106 126 106 Z"
            fill="#e18b9b" stroke="#6b4b3b" stroke-width="2"
            stroke-linecap="round" stroke-linejoin="round" />
      <path d="M126 108 Q128 112 130 108
               M126 108 Q122 112 118 111
               M130 108 Q134 112 138 111"
            fill="none" stroke="#6b4b3b" stroke-width="2"
            stroke-linecap="round" stroke-linejoin="round" />
      <circle cx="102" cy="102" r="6" fill="#f3a6b5" opacity="0.7" />
      <circle cx="154" cy="102" r="6" fill="#f3a6b5" opacity="0.7" />
    </g>
    <!-- body -->
    <g id="body">
      <rect x="94" y="126" width="68" height="60" rx="26" ry="26"
            fill="#f3d6b8" stroke="#6b4b3b" stroke-width="3"
            stroke-linecap="round" stroke-linejoin="round" />
    </g>
    <!-- paws -->
    <g id="paws">
      <rect x="98" y="176" width="22" height="18" rx="9" ry="9"
            fill="#f3d6b8" stroke="#6b4b3b" stroke-width="3"
            stroke-linecap="round" stroke-linejoin="round" />
      <rect x="138" y="176" width="22" height="18" rx="9" ry="9"
            fill="#f3d6b8" stroke="#6b4b3b" stroke-width="3"
            stroke-linecap="round" stroke-linejoin="round" />
    </g>
    <!-- tail -->
    <g id="tail">
      <path d="M162 164 Q188 166 198 180 Q207 194 198 208 Q188 220 170 216"
            fill="#f3d6b8" stroke="#6b4b3b" stroke-width="3"
            stroke-linecap="round" stroke-linejoin="round" />
    </g>
    <!-- sparkle -->
    <g id="sparkle">
      <g transform="translate(170 48)">
        <path d="M0 -6 Q1 -3 3 -2 Q1 -1 0 2 Q-1 -1 -3 -2 Q-1 -3 0 -6 Z"
              fill="#ffe9a8" />
        <path d="M0 -9 L0 9 M-7 0 L7 0"
              stroke="#ffe9a8" stroke-width="2"
              stroke-linecap="round" stroke-linejoin="round" fill="none" />
      </g>
    </g>
  </g>
</svg>

